<?xml version="1.0" encoding="utf-8"?>
<!-- Generator: Adobe Illustrator 26.5.0, SVG Export Plug-In . SVG Version: 6.00 Build 0)  -->
<svg version="1.1" id="Layer_1" xmlns="http://www.w3.org/2000/svg" xmlns:xlink="http://www.w3.org/1999/xlink" x="0px" y="0px"
	 viewBox="0 0 42 44" style="enable-background:new 0 0 42 44;" xml:space="preserve">
<style type="text/css">
	.st0{fill-rule:evenodd;clip-rule:evenodd;fill:#FFFFFF;}
	.st1{fill-rule:evenodd;clip-rule:evenodd;fill:#FFFFFF;filter:url(#Adobe_OpacityMaskFilter);}
	.st2{mask:url(#path-1-inside-1_80_6112_00000045581207969950757800000004567074681831760308_);}
	
		.st3{fill-rule:evenodd;clip-rule:evenodd;fill:#FFFFFF;filter:url(#Adobe_OpacityMaskFilter_00000022538153068421892820000008009113608406713765_);}
	
		.st4{fill-rule:evenodd;clip-rule:evenodd;fill:#FFFFFF;filter:url(#Adobe_OpacityMaskFilter_00000011709789041692802370000011634459032289607571_);}
	.st5{mask:url(#path-1-inside-1_80_6112_00000093147074540940819630000010575187299522104455_);}
	.st6{fill:#D97D52;}
	
		.st7{fill-rule:evenodd;clip-rule:evenodd;fill:#FFFFFF;filter:url(#Adobe_OpacityMaskFilter_00000173132334926412694750000015376994217438552709_);}
	.st8{mask:url(#path-5-inside-2_80_6112_00000085243538410878923240000011734765030507033271_);}
</style>
<path class="st0" d="M22.8,10.1c-0.3,0-0.5,0-0.8-0.1c-0.3-0.1-0.5-0.1-0.8-0.2c-0.2-0.1-0.5-0.2-0.7-0.4c-0.2-0.2-0.4-0.3-0.6-0.5
	c-0.2-0.2-0.4-0.4-0.5-0.6c-0.1-0.2-0.3-0.5-0.4-0.7C19,7.3,18.9,7,18.8,6.8c-0.1-0.3-0.1-0.5-0.1-0.8c0-0.3,0-0.5,0.1-0.8
	c0-0.3,0.1-0.5,0.2-0.8c0.1-0.3,0.2-0.5,0.4-0.7c0.1-0.2,0.3-0.4,0.5-0.6c0.2-0.2,0.4-0.4,0.6-0.5c0.2-0.2,0.5-0.3,0.7-0.4
	c0.2-0.1,0.5-0.2,0.8-0.3c0.3-0.1,0.5-0.1,0.8-0.1c-0.2-0.1-0.4-0.1-0.7-0.2c-0.2,0-0.5-0.1-0.7-0.1s-0.5,0-0.7,0
	c-0.2,0-0.5,0-0.7,0.1c-0.2,0-0.5,0.1-0.7,0.2c-0.2,0.1-0.4,0.1-0.6,0.2c-0.2,0.1-0.4,0.2-0.6,0.3c-0.2,0.1-0.4,0.2-0.6,0.4
	C17.3,2.8,17.1,3,17,3.1c-0.2,0.2-0.3,0.3-0.5,0.5c-0.1,0.2-0.3,0.4-0.4,0.6c-0.1,0.2-0.2,0.4-0.3,0.6c-0.1,0.2-0.2,0.4-0.3,0.6
	c-0.1,0.2-0.1,0.4-0.2,0.7c-0.1,0.2-0.1,0.5-0.1,0.7c0,0.2,0,0.5,0,0.7c0,0.4,0,0.8,0.1,1.2c0.1,0.4,0.2,0.8,0.4,1.2
	c0.2,0.4,0.4,0.7,0.6,1.1c0.2,0.3,0.5,0.6,0.8,0.9c0.3,0.3,0.6,0.5,1,0.7c0.2,0.1,0.4,0.2,0.6,0.3C8.3,14,0.2,22.7,0.2,33.3v10.4h41
	V33.3c0-10.4-7.7-19-17.8-20.3c0.1-0.1,0.3-0.1,0.4-0.2c0.4-0.2,0.7-0.4,1-0.7c0.3-0.3,0.6-0.6,0.9-0.9c0.3-0.3,0.5-0.7,0.7-1
	c0.2-0.4,0.3-0.7,0.4-1.1C26.9,8.7,27,8.3,27,7.9c0-0.4,0-0.8,0-1.2c-0.1,0.5-0.3,0.9-0.5,1.4c-0.2,0.4-0.6,0.8-0.9,1.1
	c-0.4,0.3-0.8,0.6-1.3,0.7C23.8,10,23.3,10.1,22.8,10.1z"/>
<defs>
	<filter id="Adobe_OpacityMaskFilter" filterUnits="userSpaceOnUse" x="-0.3" y="0.9" width="42.2" height="43.3">
		<feColorMatrix  type="matrix" values="1 0 0 0 0  0 1 0 0 0  0 0 1 0 0  0 0 0 1 0"/>
	</filter>
</defs>
<mask maskUnits="userSpaceOnUse" x="-0.3" y="0.9" width="42.2" height="43.3" id="path-1-inside-1_80_6112_00000045581207969950757800000004567074681831760308_">
	<path class="st1" d="M22.8,10.1c-0.3,0-0.5,0-0.8-0.1c-0.3-0.1-0.5-0.1-0.8-0.2c-0.2-0.1-0.5-0.2-0.7-0.4c-0.2-0.2-0.4-0.3-0.6-0.5
		c-0.2-0.2-0.4-0.4-0.5-0.6c-0.1-0.2-0.3-0.5-0.4-0.7C19,7.3,18.9,7,18.8,6.8c-0.1-0.3-0.1-0.5-0.1-0.8c0-0.3,0-0.5,0.1-0.8
		c0-0.3,0.1-0.5,0.2-0.8c0.1-0.3,0.2-0.5,0.4-0.7c0.1-0.2,0.3-0.4,0.5-0.6c0.2-0.2,0.4-0.4,0.6-0.5c0.2-0.2,0.5-0.3,0.7-0.4
		c0.2-0.1,0.5-0.2,0.8-0.3c0.3-0.1,0.5-0.1,0.8-0.1c-0.2-0.1-0.4-0.1-0.7-0.2c-0.2,0-0.5-0.1-0.7-0.1s-0.5,0-0.7,0
		c-0.2,0-0.5,0-0.7,0.1c-0.2,0-0.5,0.1-0.7,0.2c-0.2,0.1-0.4,0.1-0.6,0.2c-0.2,0.1-0.4,0.2-0.6,0.3c-0.2,0.1-0.4,0.2-0.6,0.4
		C17.3,2.8,17.1,3,17,3.1c-0.2,0.2-0.3,0.3-0.5,0.5c-0.1,0.2-0.3,0.4-0.4,0.6c-0.1,0.2-0.2,0.4-0.3,0.6c-0.1,0.2-0.2,0.4-0.3,0.6
		c-0.1,0.2-0.1,0.4-0.2,0.7c-0.1,0.2-0.1,0.5-0.1,0.7c0,0.2,0,0.5,0,0.7c0,0.4,0,0.8,0.1,1.2c0.1,0.4,0.2,0.8,0.4,1.2
		c0.2,0.4,0.4,0.7,0.6,1.1c0.2,0.3,0.5,0.6,0.8,0.9c0.3,0.3,0.6,0.5,1,0.7c0.2,0.1,0.4,0.2,0.6,0.3C8.3,14,0.2,22.7,0.2,33.3v10.4
		h41V33.3c0-10.4-7.7-19-17.8-20.3c0.1-0.1,0.3-0.1,0.4-0.2c0.4-0.2,0.7-0.4,1-0.7c0.3-0.3,0.6-0.6,0.9-0.9c0.3-0.3,0.5-0.7,0.7-1
		c0.2-0.4,0.3-0.7,0.4-1.1C26.9,8.7,27,8.3,27,7.9c0-0.4,0-0.8,0-1.2c-0.1,0.5-0.3,0.9-0.5,1.4c-0.2,0.4-0.6,0.8-0.9,1.1
		c-0.4,0.3-0.8,0.6-1.3,0.7C23.8,10,23.3,10.1,22.8,10.1z"/>
</mask>
<path class="st2" d="M22,10l-0.1,0.6l0,0L22,10z M22.8,10.1l0,0.6h0V10.1z M21.3,9.8L21,10.3l0,0L21.3,9.8z M20.6,9.4l-0.3,0.5l0,0
	L20.6,9.4z M19.9,8.9l-0.4,0.4v0L19.9,8.9z M19.1,7.5l-0.5,0.2l0,0L19.1,7.5z M18.8,6.8l0.6-0.1l0,0L18.8,6.8z M18.7,6l-0.6,0l0,0
	L18.7,6z M18.8,5.2l-0.6-0.1l0,0L18.8,5.2z M19,4.4l-0.6-0.2l0,0L19,4.4z M19.4,3.7l-0.5-0.3l0,0L19.4,3.7z M19.9,3.1l-0.4-0.4l0,0
	L19.9,3.1z M20.5,2.5L20.8,3l0,0L20.5,2.5z M21.2,2.1l-0.2-0.5h0L21.2,2.1z M21.9,1.9l-0.1-0.6l0,0L21.9,1.9z M22.7,1.7l0,0.6
	l0.1-1.2L22.7,1.7z M22.1,1.6L22.2,1l0,0L22.1,1.6z M21.4,1.5l0-0.6l0,0L21.4,1.5z M20.7,1.5l0,0.6l0,0L20.7,1.5z M20,1.6L19.9,1
	l0,0L20,1.6z M19.3,1.8l0.2,0.6l0,0L19.3,1.8z M18.7,2l-0.2-0.5l0,0L18.7,2z M18.1,2.3l-0.3-0.5l0,0L18.1,2.3z M17.5,2.7l-0.4-0.5
	l0,0L17.5,2.7z M17,3.1l-0.4-0.4l0,0L17,3.1z M16.5,3.6L16.9,4l0,0L16.5,3.6z M16.1,4.2l-0.5-0.3l0,0L16.1,4.2z M15.7,4.8l-0.5-0.3
	l0,0L15.7,4.8z M15.5,5.4l-0.6-0.2l0,0L15.5,5.4z M15.3,6.1l0.6,0.1l0,0L15.3,6.1z M15.1,6.8l-0.6-0.1l0,0L15.1,6.8z M15.1,7.5
	l0.6,0v0H15.1z M15.2,8.7l-0.6,0.1l0,0L15.2,8.7z M15.6,9.8l0.5-0.2l0,0L15.6,9.8z M16.2,10.9l-0.5,0.3l0,0L16.2,10.9z M17,11.8
	l-0.4,0.4l0,0L17,11.8z M18,12.6l0.3-0.5l0,0L18,12.6z M18.5,12.9l0.1,0.6l2.1-0.2l-1.9-0.9L18.5,12.9z M0.2,43.7h-0.6v0.6h0.6V43.7
	z M41.2,43.7v0.6h0.6v-0.6H41.2z M23.4,13l-0.2-0.5l-2,0.9l2.1,0.3L23.4,13z M23.8,12.8l0.3,0.5l0,0L23.8,12.8z M24.8,12.1l0.4,0.5
	l0,0L24.8,12.1z M25.7,11.2l-0.5-0.4l0,0L25.7,11.2z M26.4,10.2l0.5,0.3l0,0L26.4,10.2z M26.8,9.1l0.6,0.2v0L26.8,9.1z M27,7.9
	l0.6,0v0L27,7.9z M27,6.6l0.6-0.1l-1.2,0L27,6.6z M26.5,8L27,8.3l0,0L26.5,8z M25.5,9.1l0.4,0.5l0,0L25.5,9.1z M24.3,9.9l-0.2-0.6
	l0,0L24.3,9.9z M21.9,10.6c0.3,0.1,0.6,0.1,0.9,0.1l0-1.2c-0.2,0-0.5,0-0.7-0.1L21.9,10.6z M21,10.3c0.3,0.1,0.6,0.2,0.9,0.3
	l0.3-1.2c-0.2-0.1-0.4-0.1-0.7-0.2L21,10.3z M20.2,9.9c0.3,0.2,0.5,0.3,0.8,0.4l0.5-1.1c-0.2-0.1-0.4-0.2-0.6-0.3L20.2,9.9z
	 M19.5,9.3c0.2,0.2,0.5,0.4,0.7,0.6l0.7-1c-0.2-0.1-0.4-0.3-0.5-0.4L19.5,9.3z M18.9,8.6c0.2,0.3,0.4,0.5,0.6,0.7l0.8-0.8
	c-0.2-0.2-0.3-0.3-0.4-0.5L18.9,8.6z M18.5,7.8c0.1,0.3,0.3,0.6,0.4,0.8l1-0.7c-0.1-0.2-0.2-0.4-0.3-0.6L18.5,7.8z M18.2,6.9
	c0.1,0.3,0.2,0.6,0.3,0.9l1.1-0.5c-0.1-0.2-0.2-0.4-0.2-0.7L18.2,6.9z M18.1,6c0,0.3,0,0.6,0.1,0.9l1.2-0.2c0-0.2-0.1-0.4-0.1-0.7
	L18.1,6z M18.2,5.1c-0.1,0.3-0.1,0.6-0.1,0.9l1.2,0c0-0.2,0-0.5,0.1-0.7L18.2,5.1z M18.5,4.2c-0.1,0.3-0.2,0.6-0.3,0.9l1.2,0.2
	c0-0.2,0.1-0.5,0.2-0.7L18.5,4.2z M18.9,3.4c-0.2,0.3-0.3,0.5-0.4,0.8l1.1,0.4c0.1-0.2,0.2-0.4,0.3-0.6L18.9,3.4z M19.4,2.6
	c-0.2,0.2-0.4,0.5-0.6,0.7l1,0.6c0.1-0.2,0.3-0.4,0.4-0.5L19.4,2.6z M20.1,2c-0.2,0.2-0.5,0.4-0.7,0.6l0.9,0.8
	c0.2-0.2,0.3-0.3,0.5-0.5L20.1,2z M20.9,1.6c-0.3,0.1-0.5,0.3-0.8,0.5l0.7,1c0.2-0.1,0.4-0.3,0.6-0.3L20.9,1.6z M21.8,1.3
	c-0.3,0.1-0.6,0.2-0.9,0.3l0.5,1.1c0.2-0.1,0.4-0.2,0.7-0.2L21.8,1.3z M22.7,1.1c-0.3,0-0.6,0.1-0.9,0.1l0.3,1.2
	c0.2-0.1,0.5-0.1,0.7-0.1L22.7,1.1z M22,2.2c0.2,0,0.4,0.1,0.6,0.1l0.3-1.1C22.6,1.1,22.4,1,22.2,1L22,2.2z M21.3,2.1
	c0.2,0,0.4,0,0.6,0.1L22.2,1c-0.2,0-0.5-0.1-0.7-0.1L21.3,2.1z M20.7,2.1c0.2,0,0.4,0,0.6,0l0.1-1.2c-0.3,0-0.5,0-0.8,0L20.7,2.1z
	 M20.1,2.2c0.2,0,0.4-0.1,0.6-0.1l-0.1-1.2c-0.3,0-0.5,0-0.8,0.1L20.1,2.2z M19.5,2.3c0.2-0.1,0.4-0.1,0.6-0.1L19.9,1
	c-0.2,0-0.5,0.1-0.7,0.2L19.5,2.3z M18.9,2.5c0.2-0.1,0.4-0.2,0.6-0.2l-0.4-1.1c-0.2,0.1-0.5,0.2-0.7,0.3L18.9,2.5z M18.4,2.8
	c0.2-0.1,0.4-0.2,0.6-0.3l-0.5-1.1c-0.2,0.1-0.5,0.2-0.7,0.3L18.4,2.8z M17.8,3.2C18,3,18.2,2.9,18.4,2.8l-0.6-1
	c-0.2,0.1-0.4,0.3-0.6,0.4L17.8,3.2z M17.4,3.6c0.2-0.1,0.3-0.3,0.5-0.4l-0.7-0.9c-0.2,0.2-0.4,0.3-0.6,0.5L17.4,3.6z M16.9,4
	c0.1-0.2,0.3-0.3,0.4-0.5l-0.8-0.9c-0.2,0.2-0.4,0.4-0.5,0.6L16.9,4z M16.6,4.5c0.1-0.2,0.2-0.3,0.4-0.5L16,3.3
	c-0.2,0.2-0.3,0.4-0.5,0.6L16.6,4.5z M16.3,5.1c0.1-0.2,0.2-0.4,0.3-0.5l-1-0.6c-0.1,0.2-0.3,0.4-0.4,0.7L16.3,5.1z M16,5.6
	c0.1-0.2,0.2-0.4,0.2-0.6l-1.1-0.5C15.1,4.8,15,5,14.9,5.2L16,5.6z M15.8,6.2c0-0.2,0.1-0.4,0.2-0.6l-1.1-0.4
	c-0.1,0.2-0.2,0.5-0.2,0.7L15.8,6.2z M15.7,6.8c0-0.2,0.1-0.4,0.1-0.6L14.7,6c-0.1,0.2-0.1,0.5-0.1,0.7L15.7,6.8z M15.7,7.5
	c0-0.2,0-0.4,0-0.6l-1.2-0.1c0,0.2,0,0.5,0,0.8H15.7z M15.8,8.6c-0.1-0.4-0.1-0.7-0.1-1.1l-1.2,0c0,0.5,0,0.9,0.1,1.3L15.8,8.6z
	 M16.1,9.6c-0.1-0.3-0.3-0.7-0.3-1.1l-1.2,0.2c0.1,0.4,0.2,0.9,0.4,1.3L16.1,9.6z M16.7,10.6c-0.2-0.3-0.4-0.6-0.5-1L15,10.1
	c0.2,0.4,0.4,0.8,0.7,1.2L16.7,10.6z M17.4,11.4c-0.3-0.3-0.5-0.5-0.7-0.8l-1,0.7c0.3,0.4,0.6,0.7,0.9,1L17.4,11.4z M18.3,12.1
	c-0.3-0.2-0.6-0.4-0.9-0.7l-0.8,0.9c0.3,0.3,0.7,0.6,1.1,0.8L18.3,12.1z M18.8,12.4c-0.2-0.1-0.4-0.2-0.5-0.3l-0.6,1
	c0.2,0.1,0.4,0.2,0.6,0.3L18.8,12.4z M0.8,33.3c0-10.3,7.8-18.7,17.8-19.8l-0.1-1.2C7.9,13.4-0.3,22.4-0.3,33.3H0.8z M0.8,43.7V33.3
	h-1.2v10.4H0.8z M41.2,43.1h-41v1.2h41V43.1z M40.6,33.3v10.4h1.2V33.3H40.6z M23.4,13.5c9.7,1.3,17.3,9.6,17.3,19.7h1.2
	c0-10.7-8-19.5-18.3-20.9L23.4,13.5z M23.5,12.3c-0.1,0.1-0.2,0.1-0.3,0.2l0.5,1.1c0.1-0.1,0.3-0.1,0.4-0.2L23.5,12.3z M24.5,11.6
	c-0.3,0.2-0.6,0.4-0.9,0.6l0.6,1c0.4-0.2,0.8-0.5,1.1-0.7L24.5,11.6z M25.2,10.9c-0.2,0.3-0.5,0.5-0.8,0.8l0.8,0.9
	c0.3-0.3,0.7-0.6,0.9-1L25.2,10.9z M25.8,9.9c-0.2,0.3-0.4,0.6-0.6,0.9l0.9,0.8c0.3-0.4,0.5-0.7,0.7-1.1L25.8,9.9z M26.2,8.9
	c-0.1,0.4-0.2,0.7-0.4,1l1.1,0.5c0.2-0.4,0.4-0.8,0.5-1.3L26.2,8.9z M26.4,7.8c0,0.4-0.1,0.7-0.2,1.1l1.1,0.3
	c0.1-0.4,0.2-0.9,0.2-1.3L26.4,7.8z M26.4,6.7c0.1,0.4,0.1,0.7,0,1.1l1.2,0.1c0-0.4,0-0.9-0.1-1.3L26.4,6.7z M27,8.3
	c0.3-0.5,0.5-1,0.6-1.6l-1.2-0.2c-0.1,0.4-0.2,0.8-0.4,1.2L27,8.3z M25.9,9.6c0.4-0.4,0.8-0.8,1.1-1.3l-1-0.6
	c-0.2,0.4-0.5,0.7-0.8,1L25.9,9.6z M24.5,10.4c0.5-0.2,1-0.5,1.4-0.8l-0.8-0.9c-0.3,0.3-0.7,0.5-1.1,0.6L24.5,10.4z M22.8,10.7
	c0.6,0,1.1-0.1,1.6-0.3l-0.4-1.1c-0.4,0.1-0.8,0.2-1.2,0.2V10.7z"/>
<defs>
	
		<filter id="Adobe_OpacityMaskFilter_00000060732740251609063150000013444251311351618448_" filterUnits="userSpaceOnUse" x="-2.7" y="26.4" width="43.3" height="17.2">
		<feColorMatrix  type="matrix" values="1 0 0 0 0  0 1 0 0 0  0 0 1 0 0  0 0 0 1 0"/>
	</filter>
</defs>
<mask maskUnits="userSpaceOnUse" x="-2.7" y="26.4" width="43.3" height="17.2" id="mask0_80_6112_00000001651365021765036040000011818691078790761879_">
	
		<path style="fill-rule:evenodd;clip-rule:evenodd;fill:#FFFFFF;filter:url(#Adobe_OpacityMaskFilter_00000060732740251609063150000013444251311351618448_);" d="
		M22.8,10.1c-0.3,0-0.5,0-0.8-0.1c-0.3-0.1-0.5-0.1-0.8-0.2c-0.2-0.1-0.5-0.2-0.7-0.4c-0.2-0.2-0.4-0.3-0.6-0.5
		c-0.2-0.2-0.4-0.4-0.5-0.6c-0.1-0.2-0.3-0.5-0.4-0.7C19,7.3,18.9,7,18.8,6.8c-0.1-0.3-0.1-0.5-0.1-0.8c0-0.3,0-0.5,0.1-0.8
		c0-0.3,0.1-0.5,0.2-0.8c0.1-0.3,0.2-0.5,0.4-0.7c0.1-0.2,0.3-0.4,0.5-0.6c0.2-0.2,0.4-0.4,0.6-0.5c0.2-0.2,0.5-0.3,0.7-0.4
		c0.2-0.1,0.5-0.2,0.8-0.3c0.3-0.1,0.5-0.1,0.8-0.1c-0.2-0.1-0.4-0.1-0.7-0.2c-0.2,0-0.5-0.1-0.7-0.1s-0.5,0-0.7,0
		c-0.2,0-0.5,0-0.7,0.1c-0.2,0-0.5,0.1-0.7,0.2c-0.2,0.1-0.4,0.1-0.6,0.2c-0.2,0.1-0.4,0.2-0.6,0.3c-0.2,0.1-0.4,0.2-0.6,0.4
		C17.3,2.8,17.1,3,17,3.1c-0.2,0.2-0.3,0.3-0.5,0.5c-0.1,0.2-0.3,0.4-0.4,0.6c-0.1,0.2-0.2,0.4-0.3,0.6c-0.1,0.2-0.2,0.4-0.3,0.6
		c-0.1,0.2-0.1,0.4-0.2,0.7c-0.1,0.2-0.1,0.5-0.1,0.7c0,0.2,0,0.5,0,0.7c0,0.4,0,0.8,0.1,1.2c0.1,0.4,0.2,0.8,0.4,1.2
		c0.2,0.4,0.4,0.7,0.6,1.1c0.2,0.3,0.5,0.6,0.8,0.9c0.3,0.3,0.6,0.5,1,0.7c0.2,0.1,0.4,0.2,0.6,0.3C8.3,14,0.2,22.7,0.2,33.3v10.4
		h41V33.3c0-10.4-7.7-19-17.8-20.3c0.1-0.1,0.3-0.1,0.4-0.2c0.4-0.2,0.7-0.4,1-0.7c0.3-0.3,0.6-0.6,0.9-0.9c0.3-0.3,0.5-0.7,0.7-1
		c0.2-0.4,0.3-0.7,0.4-1.1C26.9,8.7,27,8.3,27,7.9c0-0.4,0-0.8,0-1.2c-0.1,0.5-0.3,0.9-0.5,1.4c-0.2,0.4-0.6,0.8-0.9,1.1
		c-0.4,0.3-0.8,0.6-1.3,0.7C23.8,10,23.3,10.1,22.8,10.1z"/>
	<defs>
		
			<filter id="Adobe_OpacityMaskFilter_00000140725761278475586330000013665733921767510920_" filterUnits="userSpaceOnUse" x="-0.3" y="0.9" width="42.2" height="43.3">
			<feColorMatrix  type="matrix" values="1 0 0 0 0  0 1 0 0 0  0 0 1 0 0  0 0 0 1 0"/>
		</filter>
	</defs>
	
		<mask maskUnits="userSpaceOnUse" x="-0.3" y="0.9" width="42.2" height="43.3" id="path-1-inside-1_80_6112_00000093147074540940819630000010575187299522104455_">
		
			<path style="fill-rule:evenodd;clip-rule:evenodd;fill:#FFFFFF;filter:url(#Adobe_OpacityMaskFilter_00000140725761278475586330000013665733921767510920_);" d="
			M22.8,10.1c-0.3,0-0.5,0-0.8-0.1c-0.3-0.1-0.5-0.1-0.8-0.2c-0.2-0.1-0.5-0.2-0.7-0.4c-0.2-0.2-0.4-0.3-0.6-0.5
			c-0.2-0.2-0.4-0.4-0.5-0.6c-0.1-0.2-0.3-0.5-0.4-0.7C19,7.3,18.9,7,18.8,6.8c-0.1-0.3-0.1-0.5-0.1-0.8c0-0.3,0-0.5,0.1-0.8
			c0-0.3,0.1-0.5,0.2-0.8c0.1-0.3,0.2-0.5,0.4-0.7c0.1-0.2,0.3-0.4,0.5-0.6c0.2-0.2,0.4-0.4,0.6-0.5c0.2-0.2,0.5-0.3,0.7-0.4
			c0.2-0.1,0.5-0.2,0.8-0.3c0.3-0.1,0.5-0.1,0.8-0.1c-0.2-0.1-0.4-0.1-0.7-0.2c-0.2,0-0.5-0.1-0.7-0.1s-0.5,0-0.7,0
			c-0.2,0-0.5,0-0.7,0.1c-0.2,0-0.5,0.1-0.7,0.2c-0.2,0.1-0.4,0.1-0.6,0.2c-0.2,0.1-0.4,0.2-0.6,0.3c-0.2,0.1-0.4,0.2-0.6,0.4
			C17.3,2.8,17.1,3,17,3.1c-0.2,0.2-0.3,0.3-0.5,0.5c-0.1,0.2-0.3,0.4-0.4,0.6c-0.1,0.2-0.2,0.4-0.3,0.6c-0.1,0.2-0.2,0.4-0.3,0.6
			c-0.1,0.2-0.1,0.4-0.2,0.7c-0.1,0.2-0.1,0.5-0.1,0.7c0,0.2,0,0.5,0,0.7c0,0.4,0,0.8,0.1,1.2c0.1,0.4,0.2,0.8,0.4,1.2
			c0.2,0.4,0.4,0.7,0.6,1.1c0.2,0.3,0.5,0.6,0.8,0.9c0.3,0.3,0.6,0.5,1,0.7c0.2,0.1,0.4,0.2,0.6,0.3C8.3,14,0.2,22.7,0.2,33.3v10.4
			h41V33.3c0-10.4-7.7-19-17.8-20.3c0.1-0.1,0.3-0.1,0.4-0.2c0.4-0.2,0.7-0.4,1-0.7c0.3-0.3,0.6-0.6,0.9-0.9c0.3-0.3,0.5-0.7,0.7-1
			c0.2-0.4,0.3-0.7,0.4-1.1C26.9,8.7,27,8.3,27,7.9c0-0.4,0-0.8,0-1.2c-0.1,0.5-0.3,0.9-0.5,1.4c-0.2,0.4-0.6,0.8-0.9,1.1
			c-0.4,0.3-0.8,0.6-1.3,0.7C23.8,10,23.3,10.1,22.8,10.1z"/>
	</mask>
	<path class="st5" d="M22,10l-0.1,0.6l0,0L22,10z M22.8,10.1l0,0.6h0V10.1z M21.3,9.8L21,10.3l0,0L21.3,9.8z M20.6,9.4l-0.3,0.5l0,0
		L20.6,9.4z M19.9,8.9l-0.4,0.4v0L19.9,8.9z M19.1,7.5l-0.5,0.2l0,0L19.1,7.5z M18.8,6.8l0.6-0.1l0,0L18.8,6.8z M18.7,6l-0.6,0l0,0
		L18.7,6z M18.8,5.2l-0.6-0.1l0,0L18.8,5.2z M19,4.4l-0.6-0.2l0,0L19,4.4z M19.4,3.7l-0.5-0.3l0,0L19.4,3.7z M19.9,3.1l-0.4-0.4l0,0
		L19.9,3.1z M20.5,2.5L20.8,3l0,0L20.5,2.5z M21.2,2.1l-0.2-0.5h0L21.2,2.1z M21.9,1.9l-0.1-0.6l0,0L21.9,1.9z M22.7,1.7l0,0.6
		l0.1-1.2L22.7,1.7z M22.1,1.6L22.2,1l0,0L22.1,1.6z M21.4,1.5l0-0.6l0,0L21.4,1.5z M20.7,1.5l0,0.6l0,0L20.7,1.5z M20,1.6L19.9,1
		l0,0L20,1.6z M19.3,1.8l0.2,0.6l0,0L19.3,1.8z M18.7,2l-0.2-0.5l0,0L18.7,2z M18.1,2.3l-0.3-0.5l0,0L18.1,2.3z M17.5,2.7l-0.4-0.5
		l0,0L17.5,2.7z M17,3.1l-0.4-0.4l0,0L17,3.1z M16.5,3.6L16.9,4l0,0L16.5,3.6z M16.1,4.2l-0.5-0.3l0,0L16.1,4.2z M15.7,4.8l-0.5-0.3
		l0,0L15.7,4.8z M15.5,5.4l-0.6-0.2l0,0L15.5,5.4z M15.3,6.1l0.6,0.1l0,0L15.3,6.1z M15.1,6.8l-0.6-0.1l0,0L15.1,6.8z M15.1,7.5
		l0.6,0v0H15.1z M15.2,8.7l-0.6,0.1l0,0L15.2,8.7z M15.6,9.8l0.5-0.2l0,0L15.6,9.8z M16.2,10.9l-0.5,0.3l0,0L16.2,10.9z M17,11.8
		l-0.4,0.4l0,0L17,11.8z M18,12.6l0.3-0.5l0,0L18,12.6z M18.5,12.9l0.1,0.6l2.1-0.2l-1.9-0.9L18.5,12.9z M0.2,43.7h-0.6v0.6h0.6
		V43.7z M41.2,43.7v0.6h0.6v-0.6H41.2z M23.4,13l-0.2-0.5l-2,0.9l2.1,0.3L23.4,13z M23.8,12.8l0.3,0.5l0,0L23.8,12.8z M24.8,12.1
		l0.4,0.5l0,0L24.8,12.1z M25.7,11.2l-0.5-0.4l0,0L25.7,11.2z M26.4,10.2l0.5,0.3l0,0L26.4,10.2z M26.8,9.1l0.6,0.2v0L26.8,9.1z
		 M27,7.9l0.6,0v0L27,7.9z M27,6.6l0.6-0.1l-1.2,0L27,6.6z M26.5,8L27,8.3l0,0L26.5,8z M25.5,9.1l0.4,0.5l0,0L25.5,9.1z M24.3,9.9
		l-0.2-0.6l0,0L24.3,9.9z M21.9,10.6c0.3,0.1,0.6,0.1,0.9,0.1l0-1.2c-0.2,0-0.5,0-0.7-0.1L21.9,10.6z M21,10.3
		c0.3,0.1,0.6,0.2,0.9,0.3l0.3-1.2c-0.2-0.1-0.4-0.1-0.7-0.2L21,10.3z M20.2,9.9c0.3,0.2,0.5,0.3,0.8,0.4l0.5-1.1
		c-0.2-0.1-0.4-0.2-0.6-0.3L20.2,9.9z M19.5,9.3c0.2,0.2,0.5,0.4,0.7,0.6l0.7-1c-0.2-0.1-0.4-0.3-0.5-0.4L19.5,9.3z M18.9,8.6
		c0.2,0.3,0.4,0.5,0.6,0.7l0.8-0.8c-0.2-0.2-0.3-0.3-0.4-0.5L18.9,8.6z M18.5,7.8c0.1,0.3,0.3,0.6,0.4,0.8l1-0.7
		c-0.1-0.2-0.2-0.4-0.3-0.6L18.5,7.8z M18.2,6.9c0.1,0.3,0.2,0.6,0.3,0.9l1.1-0.5c-0.1-0.2-0.2-0.4-0.2-0.7L18.2,6.9z M18.1,6
		c0,0.3,0,0.6,0.1,0.9l1.2-0.2c0-0.2-0.1-0.4-0.1-0.7L18.1,6z M18.2,5.1c-0.1,0.3-0.1,0.6-0.1,0.9l1.2,0c0-0.2,0-0.5,0.1-0.7
		L18.2,5.1z M18.5,4.2c-0.1,0.3-0.2,0.6-0.3,0.9l1.2,0.2c0-0.2,0.1-0.5,0.2-0.7L18.5,4.2z M18.9,3.4c-0.2,0.3-0.3,0.5-0.4,0.8
		l1.1,0.4c0.1-0.2,0.2-0.4,0.3-0.6L18.9,3.4z M19.4,2.6c-0.2,0.2-0.4,0.5-0.6,0.7l1,0.6c0.1-0.2,0.3-0.4,0.4-0.5L19.4,2.6z M20.1,2
		c-0.2,0.2-0.5,0.4-0.7,0.6l0.9,0.8c0.2-0.2,0.3-0.3,0.5-0.5L20.1,2z M20.9,1.6c-0.3,0.1-0.5,0.3-0.8,0.5l0.7,1
		c0.2-0.1,0.4-0.3,0.6-0.3L20.9,1.6z M21.8,1.3c-0.3,0.1-0.6,0.2-0.9,0.3l0.5,1.1c0.2-0.1,0.4-0.2,0.7-0.2L21.8,1.3z M22.7,1.1
		c-0.3,0-0.6,0.1-0.9,0.1l0.3,1.2c0.2-0.1,0.5-0.1,0.7-0.1L22.7,1.1z M22,2.2c0.2,0,0.4,0.1,0.6,0.1l0.3-1.1C22.6,1.1,22.4,1,22.2,1
		L22,2.2z M21.3,2.1c0.2,0,0.4,0,0.6,0.1L22.2,1c-0.2,0-0.5-0.1-0.7-0.1L21.3,2.1z M20.7,2.1c0.2,0,0.4,0,0.6,0l0.1-1.2
		c-0.3,0-0.5,0-0.8,0L20.7,2.1z M20.1,2.2c0.2,0,0.4-0.1,0.6-0.1l-0.1-1.2c-0.3,0-0.5,0-0.8,0.1L20.1,2.2z M19.5,2.3
		c0.2-0.1,0.4-0.1,0.6-0.1L19.9,1c-0.2,0-0.5,0.1-0.7,0.2L19.5,2.3z M18.9,2.5c0.2-0.1,0.4-0.2,0.6-0.2l-0.4-1.1
		c-0.2,0.1-0.5,0.2-0.7,0.3L18.9,2.5z M18.4,2.8c0.2-0.1,0.4-0.2,0.6-0.3l-0.5-1.1c-0.2,0.1-0.5,0.2-0.7,0.3L18.4,2.8z M17.8,3.2
		C18,3,18.2,2.9,18.4,2.8l-0.6-1c-0.2,0.1-0.4,0.3-0.6,0.4L17.8,3.2z M17.4,3.6c0.2-0.1,0.3-0.3,0.5-0.4l-0.7-0.9
		c-0.2,0.2-0.4,0.3-0.6,0.5L17.4,3.6z M16.9,4c0.1-0.2,0.3-0.3,0.4-0.5l-0.8-0.9c-0.2,0.2-0.4,0.4-0.5,0.6L16.9,4z M16.6,4.5
		c0.1-0.2,0.2-0.3,0.4-0.5L16,3.3c-0.2,0.2-0.3,0.4-0.5,0.6L16.6,4.5z M16.3,5.1c0.1-0.2,0.2-0.4,0.3-0.5l-1-0.6
		c-0.1,0.2-0.3,0.4-0.4,0.7L16.3,5.1z M16,5.6c0.1-0.2,0.2-0.4,0.2-0.6l-1.1-0.5C15.1,4.8,15,5,14.9,5.2L16,5.6z M15.8,6.2
		c0-0.2,0.1-0.4,0.2-0.6l-1.1-0.4c-0.1,0.2-0.2,0.5-0.2,0.7L15.8,6.2z M15.7,6.8c0-0.2,0.1-0.4,0.1-0.6L14.7,6
		c-0.1,0.2-0.1,0.5-0.1,0.7L15.7,6.8z M15.7,7.5c0-0.2,0-0.4,0-0.6l-1.2-0.1c0,0.2,0,0.5,0,0.8H15.7z M15.8,8.6
		c-0.1-0.4-0.1-0.7-0.1-1.1l-1.2,0c0,0.5,0,0.9,0.1,1.3L15.8,8.6z M16.1,9.6c-0.1-0.3-0.3-0.7-0.3-1.1l-1.2,0.2
		c0.1,0.4,0.2,0.9,0.4,1.3L16.1,9.6z M16.7,10.6c-0.2-0.3-0.4-0.6-0.5-1L15,10.1c0.2,0.4,0.4,0.8,0.7,1.2L16.7,10.6z M17.4,11.4
		c-0.3-0.3-0.5-0.5-0.7-0.8l-1,0.7c0.3,0.4,0.6,0.7,0.9,1L17.4,11.4z M18.3,12.1c-0.3-0.2-0.6-0.4-0.9-0.7l-0.8,0.9
		c0.3,0.3,0.7,0.6,1.1,0.8L18.3,12.1z M18.8,12.4c-0.2-0.1-0.4-0.2-0.5-0.3l-0.6,1c0.2,0.1,0.4,0.2,0.6,0.3L18.8,12.4z M0.8,33.3
		c0-10.3,7.8-18.7,17.8-19.8l-0.1-1.2C7.9,13.4-0.3,22.4-0.3,33.3H0.8z M0.8,43.7V33.3h-1.2v10.4H0.8z M41.2,43.1h-41v1.2h41V43.1z
		 M40.6,33.3v10.4h1.2V33.3H40.6z M23.4,13.5c9.7,1.3,17.3,9.6,17.3,19.7h1.2c0-10.7-8-19.5-18.3-20.9L23.4,13.5z M23.5,12.3
		c-0.1,0.1-0.2,0.1-0.3,0.2l0.5,1.1c0.1-0.1,0.3-0.1,0.4-0.2L23.5,12.3z M24.5,11.6c-0.3,0.2-0.6,0.4-0.9,0.6l0.6,1
		c0.4-0.2,0.8-0.5,1.1-0.7L24.5,11.6z M25.2,10.9c-0.2,0.3-0.5,0.5-0.8,0.8l0.8,0.9c0.3-0.3,0.7-0.6,0.9-1L25.2,10.9z M25.8,9.9
		c-0.2,0.3-0.4,0.6-0.6,0.9l0.9,0.8c0.3-0.4,0.5-0.7,0.7-1.1L25.8,9.9z M26.2,8.9c-0.1,0.4-0.2,0.7-0.4,1l1.1,0.5
		c0.2-0.4,0.4-0.8,0.5-1.3L26.2,8.9z M26.4,7.8c0,0.4-0.1,0.7-0.2,1.1l1.1,0.3c0.1-0.4,0.2-0.9,0.2-1.3L26.4,7.8z M26.4,6.7
		c0.1,0.4,0.1,0.7,0,1.1l1.2,0.1c0-0.4,0-0.9-0.1-1.3L26.4,6.7z M27,8.3c0.3-0.5,0.5-1,0.6-1.6l-1.2-0.2c-0.1,0.4-0.2,0.8-0.4,1.2
		L27,8.3z M25.9,9.6c0.4-0.4,0.8-0.8,1.1-1.3l-1-0.6c-0.2,0.4-0.5,0.7-0.8,1L25.9,9.6z M24.5,10.4c0.5-0.2,1-0.5,1.4-0.8l-0.8-0.9
		c-0.3,0.3-0.7,0.5-1.1,0.6L24.5,10.4z M22.8,10.7c0.6,0,1.1-0.1,1.6-0.3l-0.4-1.1c-0.4,0.1-0.8,0.2-1.2,0.2V10.7z"/>
</mask>
<g>
	<rect x="-2.7" y="26.4" class="st6" width="43.3" height="17.2"/>
</g>
<defs>
	
		<filter id="Adobe_OpacityMaskFilter_00000161620976889560225960000017782734159513628090_" filterUnits="userSpaceOnUse" x="-0.3" y="0.3" width="42.2" height="43.3">
		<feColorMatrix  type="matrix" values="1 0 0 0 0  0 1 0 0 0  0 0 1 0 0  0 0 0 1 0"/>
	</filter>
</defs>
<mask maskUnits="userSpaceOnUse" x="-0.3" y="0.3" width="42.2" height="43.3" id="path-5-inside-2_80_6112_00000085243538410878923240000011734765030507033271_">
	
		<path style="fill-rule:evenodd;clip-rule:evenodd;fill:#FFFFFF;filter:url(#Adobe_OpacityMaskFilter_00000161620976889560225960000017782734159513628090_);" d="
		M22.1,7.4c-0.2,0-0.4,0-0.6-0.1c-0.2,0-0.4-0.1-0.6-0.2c-0.2-0.1-0.4-0.2-0.5-0.3c-0.2-0.1-0.3-0.2-0.5-0.4
		c-0.1-0.1-0.3-0.3-0.4-0.5c-0.1-0.2-0.2-0.3-0.3-0.5c-0.1-0.2-0.1-0.4-0.2-0.6C19,4.7,19,4.5,19,4.3c0-0.2,0-0.4,0.1-0.6
		c0-0.2,0.1-0.4,0.2-0.6c0.1-0.2,0.2-0.4,0.3-0.5c0.1-0.2,0.2-0.3,0.4-0.5c0.1-0.1,0.3-0.3,0.5-0.4c0.2-0.1,0.3-0.2,0.5-0.3
		c0.2-0.1,0.4-0.2,0.6-0.2c0.2,0,0.4-0.1,0.6-0.1C21.8,1,21.7,1,21.5,1c-0.2,0-0.3,0-0.5-0.1c-0.2,0-0.3,0-0.5,0
		c-0.2,0-0.3,0-0.5,0.1c-0.2,0-0.3,0.1-0.5,0.1c-0.2,0.1-0.3,0.1-0.5,0.2c-0.2,0.1-0.3,0.1-0.5,0.2c-0.1,0.1-0.3,0.2-0.4,0.3
		c-0.1,0.1-0.3,0.2-0.4,0.3c-0.1,0.1-0.2,0.2-0.4,0.4c-0.1,0.1-0.2,0.3-0.3,0.4c-0.1,0.1-0.2,0.3-0.3,0.4c-0.1,0.2-0.1,0.3-0.2,0.5
		c-0.1,0.2-0.1,0.3-0.1,0.5c0,0.2-0.1,0.3-0.1,0.5c0,0.2,0,0.3,0,0.5c0,0.3,0,0.6,0.1,0.9c0.1,0.3,0.2,0.6,0.3,0.9
		c0.1,0.3,0.3,0.5,0.4,0.8c0.2,0.3,0.4,0.5,0.6,0.7c0.2,0.2,0.5,0.4,0.7,0.6c0.3,0.2,0.5,0.3,0.8,0.4c0.3,0.1,0.6,0.2,0.9,0.2
		c0.1,0,0.2,0,0.3,0c-0.3,0.1-0.6,0.5-0.6,0.8c0,0.5,0.4,0.9,0.9,0.9c-11.3,0-20.5,9.2-20.5,20.5v11h41v-11
		c0-11.3-9.2-20.5-20.5-20.5c0.5,0,0.9-0.4,0.9-0.9c0-0.4-0.2-0.7-0.6-0.8c0,0,0,0,0,0c0.3,0,0.6-0.1,0.9-0.2
		c0.3-0.1,0.6-0.2,0.9-0.3c0.3-0.1,0.5-0.3,0.8-0.5c0.2-0.2,0.5-0.4,0.6-0.7c0.2-0.2,0.4-0.5,0.5-0.8c0.1-0.3,0.3-0.6,0.3-0.9
		c0.1-0.3,0.1-0.6,0.1-0.9c0-0.3,0-0.6,0-0.9c-0.1,0.4-0.2,0.7-0.4,1c-0.2,0.3-0.4,0.6-0.7,0.8c-0.3,0.2-0.6,0.4-0.9,0.5
		C22.8,7.3,22.4,7.4,22.1,7.4z"/>
</mask>
<path class="st8" d="M21.5,7.3l-0.1,0.6l0,0L21.5,7.3z M22.1,7.4l0,0.6h0V7.4z M20.9,7.1l-0.2,0.5l0,0L20.9,7.1z M20.4,6.8L20,7.3
	l0,0L20.4,6.8z M19.9,6.4l-0.4,0.4l0,0L19.9,6.4z M19.3,5.4l-0.5,0.2l0,0L19.3,5.4z M19.1,4.9l0.6-0.1l0,0L19.1,4.9z M19,4.3l-0.6,0
	l0,0L19,4.3z M19.1,3.7l-0.6-0.1l0,0L19.1,3.7z M19.2,3.1l-0.6-0.2l0,0L19.2,3.1z M19.5,2.5L19,2.2l0,0L19.5,2.5z M19.9,2.1
	l-0.4-0.4l0,0L19.9,2.1z M20.3,1.7l0.3,0.5l0,0L20.3,1.7z M21.4,1.2l-0.1-0.6l0,0L21.4,1.2z M22,1.1l0,0.6l0.1-1.2L22,1.1z M21.5,1
	l0.1-0.6l0,0L21.5,1z M21,0.9l0-0.6v0L21,0.9z M20.5,0.9l0,0.6l0,0L20.5,0.9z M20,1l-0.1-0.6l0,0L20,1z M19.5,1.1l0.2,0.6l0,0
	L19.5,1.1z M19,1.3l-0.2-0.5l0,0L19,1.3z M18.5,1.5L18.2,1l0,0L18.5,1.5z M18.1,1.8l-0.4-0.5l0,0L18.1,1.8z M17.7,2.1l-0.4-0.4l0,0
	L17.7,2.1z M17,2.9l-0.5-0.3l0,0L17,2.9z M16.8,3.4l-0.5-0.3l0,0L16.8,3.4z M16.6,3.9L16,3.6l0,0L16.6,3.9z M16.4,4.4L17,4.5l0,0
	L16.4,4.4z M16.3,4.9l-0.6-0.1l0,0L16.3,4.9z M16.3,5.4l0.6,0v0H16.3z M16.4,6.3l-0.6,0.1l0,0L16.4,6.3z M16.6,7.2l0.5-0.2l0,0
	L16.6,7.2z M17.1,8l-0.5,0.3l0,0L17.1,8z M17.7,8.7l-0.4,0.4l0,0L17.7,8.7z M18.4,9.2l0.3-0.5l0,0L18.4,9.2z M19.3,9.6l-0.2,0.6l0,0
	L19.3,9.6z M20.1,9.8l0.1-0.6l0,0L20.1,9.8z M20.4,9.9l0.2,0.6l-0.2-1.2L20.4,9.9z M0.2,43.1h-0.6v0.6h0.6V43.1z M41.2,43.1v0.6h0.6
	v-0.6H41.2z M21,9.9l0-0.6l-0.2,1.2L21,9.9z M21.1,9.9l0,0.6l0,0L21.1,9.9z M22,9.7l0.2,0.6l0,0L22,9.7z M22.8,9.4l0.3,0.5l0,0
	L22.8,9.4z M23.6,8.9L24,9.3l0,0L23.6,8.9z M24.2,8.2l-0.5-0.4l0,0L24.2,8.2z M24.7,7.4l0.5,0.3l0,0L24.7,7.4z M25.2,5.7l0.6,0v0
	L25.2,5.7z M25.2,4.8l0.6-0.1l-1.2,0L25.2,4.8z M24.8,5.8l0.5,0.3l0,0L24.8,5.8z M24.1,6.6l0.4,0.5l0,0L24.1,6.6z M23.2,7.2L23,6.6
	l0,0L23.2,7.2z M21.4,7.9c0.2,0,0.5,0.1,0.7,0.1l0-1.2c-0.2,0-0.3,0-0.5-0.1L21.4,7.9z M20.7,7.7c0.2,0.1,0.4,0.2,0.7,0.2l0.3-1.2
	c-0.2,0-0.3-0.1-0.5-0.2L20.7,7.7z M20,7.3c0.2,0.1,0.4,0.2,0.6,0.3l0.5-1.1c-0.2-0.1-0.3-0.1-0.4-0.2L20,7.3z M19.5,6.8
	C19.7,7,19.8,7.2,20,7.3l0.7-1c-0.1-0.1-0.3-0.2-0.4-0.3L19.5,6.8z M19,6.3c0.1,0.2,0.3,0.4,0.4,0.6L20.3,6
	c-0.1-0.1-0.2-0.2-0.3-0.4L19,6.3z M18.7,5.7c0.1,0.2,0.2,0.4,0.3,0.6l1-0.7c-0.1-0.1-0.2-0.3-0.2-0.4L18.7,5.7z M18.5,5
	c0,0.2,0.1,0.5,0.2,0.7l1.1-0.5c-0.1-0.2-0.1-0.3-0.1-0.5L18.5,5z M18.4,4.3c0,0.2,0,0.5,0.1,0.7l1.2-0.2c0-0.2-0.1-0.3-0.1-0.5
	L18.4,4.3z M18.5,3.6c0,0.2-0.1,0.5-0.1,0.7l1.2,0c0-0.2,0-0.3,0-0.5L18.5,3.6z M18.7,2.9c-0.1,0.2-0.2,0.5-0.2,0.7l1.2,0.2
	c0-0.2,0.1-0.3,0.1-0.5L18.7,2.9z M19,2.2c-0.1,0.2-0.2,0.4-0.3,0.6l1.1,0.4C19.8,3.1,19.9,3,20,2.9L19,2.2z M19.4,1.7
	C19.3,1.8,19.1,2,19,2.2l1,0.6c0.1-0.1,0.2-0.3,0.3-0.4L19.4,1.7z M20,1.2c-0.2,0.1-0.4,0.3-0.5,0.5l0.9,0.8
	c0.1-0.1,0.2-0.2,0.4-0.3L20,1.2z M20.6,0.8c-0.2,0.1-0.4,0.2-0.6,0.4l0.7,1c0.1-0.1,0.3-0.2,0.4-0.2L20.6,0.8z M21.3,0.6
	c-0.2,0.1-0.5,0.1-0.7,0.2l0.5,1.1c0.2-0.1,0.3-0.1,0.5-0.2L21.3,0.6z M22,0.5c-0.2,0-0.5,0-0.7,0.1l0.3,1.2c0.2,0,0.3-0.1,0.5-0.1
	L22,0.5z M21.4,1.6c0.2,0,0.3,0.1,0.4,0.1l0.3-1.1c-0.2-0.1-0.4-0.1-0.6-0.1L21.4,1.6z M21,1.5c0.2,0,0.3,0,0.5,0l0.2-1.2
	c-0.2,0-0.4-0.1-0.6-0.1L21,1.5z M20.5,1.5c0.1,0,0.3,0,0.4,0L21,0.3c-0.2,0-0.4,0-0.6,0L20.5,1.5z M20.1,1.6c0.1,0,0.3,0,0.5-0.1
	l-0.1-1.2c-0.2,0-0.4,0-0.6,0.1L20.1,1.6z M19.6,1.7c0.1,0,0.3-0.1,0.4-0.1l-0.2-1.2c-0.2,0-0.4,0.1-0.6,0.1L19.6,1.7z M19.2,1.8
	c0.1-0.1,0.3-0.1,0.4-0.2l-0.4-1.1c-0.2,0.1-0.4,0.1-0.5,0.2L19.2,1.8z M18.8,2c0.1-0.1,0.3-0.1,0.4-0.2l-0.5-1.1
	c-0.2,0.1-0.4,0.2-0.5,0.3L18.8,2z M18.4,2.3c0.1-0.1,0.2-0.2,0.4-0.3l-0.6-1c-0.2,0.1-0.3,0.2-0.5,0.3L18.4,2.3z M18.1,2.6
	c0.1-0.1,0.2-0.2,0.3-0.3l-0.7-0.9c-0.2,0.1-0.3,0.2-0.4,0.4L18.1,2.6z M17.8,2.9c0.1-0.1,0.2-0.2,0.3-0.3l-0.8-0.9
	C17.1,1.8,17,2,16.9,2.1L17.8,2.9z M17.5,3.3c0.1-0.1,0.2-0.2,0.3-0.4l-0.9-0.8c-0.1,0.2-0.2,0.3-0.3,0.5L17.5,3.3z M17.3,3.6
	c0.1-0.1,0.1-0.3,0.2-0.4l-1-0.6c-0.1,0.2-0.2,0.3-0.3,0.5L17.3,3.6z M17.1,4.1c0.1-0.1,0.1-0.3,0.2-0.4l-1.1-0.5
	c-0.1,0.2-0.2,0.4-0.2,0.5L17.1,4.1z M17,4.5c0-0.1,0.1-0.3,0.1-0.4L16,3.7c-0.1,0.2-0.1,0.4-0.2,0.6L17,4.5z M16.9,4.9
	c0-0.2,0-0.3,0.1-0.4l-1.2-0.3c0,0.2-0.1,0.4-0.1,0.6L16.9,4.9z M16.9,5.4c0-0.1,0-0.3,0-0.5l-1.2-0.1c0,0.2,0,0.4,0,0.6H16.9z
	 M17,6.2c-0.1-0.3-0.1-0.5-0.1-0.8l-1.2,0c0,0.3,0,0.7,0.1,1L17,6.2z M17.2,6.9C17.1,6.7,17,6.4,17,6.2l-1.2,0.2
	c0.1,0.3,0.2,0.7,0.3,1L17.2,6.9z M17.6,7.6c-0.2-0.2-0.3-0.5-0.4-0.7l-1.1,0.5c0.1,0.3,0.3,0.6,0.5,0.9L17.6,7.6z M18.1,8.2
	c-0.2-0.2-0.4-0.4-0.5-0.6l-1,0.7c0.2,0.3,0.4,0.5,0.7,0.8L18.1,8.2z M18.7,8.7c-0.2-0.1-0.4-0.3-0.6-0.5l-0.8,0.9
	c0.3,0.2,0.5,0.4,0.8,0.6L18.7,8.7z M19.5,9.1C19.2,9,19,8.9,18.7,8.7l-0.6,1c0.3,0.2,0.6,0.3,0.9,0.5L19.5,9.1z M20.2,9.2
	c-0.3,0-0.5-0.1-0.8-0.2l-0.4,1.1c0.3,0.1,0.7,0.2,1,0.2L20.2,9.2z M20.5,9.3c-0.1,0-0.2,0-0.3,0l-0.2,1.2c0.1,0,0.2,0,0.3,0
	L20.5,9.3z M20.4,10.7c0-0.1,0.1-0.2,0.2-0.3l-0.4-1.1c-0.6,0.2-1,0.8-1,1.4H20.4z M20.7,11c-0.2,0-0.3-0.1-0.3-0.3h-1.2
	c0,0.8,0.7,1.5,1.5,1.5V11z M20.7,11C9.1,11-0.3,20.4-0.3,32.1h1.2c0-11,8.9-19.9,19.9-19.9V11z M-0.3,32.1v11h1.2v-11H-0.3z
	 M0.2,43.7h41v-1.2h-41V43.7z M41.8,43.1v-11h-1.2v11H41.8z M41.8,32.1c0-11.6-9.4-21.1-21.1-21.1v1.2c11,0,19.9,8.9,19.9,19.9H41.8
	z M21,10.7c0,0.2-0.1,0.3-0.3,0.3v1.2c0.8,0,1.5-0.7,1.5-1.5H21z M20.8,10.4c0.1,0,0.2,0.2,0.2,0.3h1.2c0-0.6-0.4-1.2-1-1.4
	L20.8,10.4z M21,9.3C21,9.3,21,9.3,21,9.3l0,1.2c0,0,0,0,0,0L21,9.3z M21.8,9.1c-0.3,0.1-0.5,0.1-0.8,0.1l0.1,1.2
	c0.3,0,0.7-0.1,1-0.2L21.8,9.1z M22.5,8.8c-0.2,0.1-0.5,0.2-0.7,0.3l0.3,1.1c0.3-0.1,0.7-0.2,1-0.4L22.5,8.8z M23.2,8.4
	c-0.2,0.2-0.4,0.3-0.7,0.4l0.6,1c0.3-0.2,0.6-0.4,0.9-0.6L23.2,8.4z M23.8,7.8c-0.2,0.2-0.4,0.4-0.6,0.6L24,9.3
	c0.3-0.2,0.5-0.5,0.7-0.7L23.8,7.8z M24.2,7.2c-0.1,0.2-0.3,0.5-0.4,0.7l0.9,0.8c0.2-0.3,0.4-0.6,0.6-0.9L24.2,7.2z M24.5,6.4
	c-0.1,0.3-0.2,0.5-0.3,0.7l1.1,0.5c0.2-0.3,0.3-0.6,0.4-1L24.5,6.4z M24.6,5.6c0,0.3-0.1,0.5-0.1,0.8l1.1,0.3c0.1-0.3,0.1-0.7,0.2-1
	L24.6,5.6z M24.6,4.8c0,0.3,0,0.5,0,0.8l1.2,0.1c0-0.3,0-0.7,0-1L24.6,4.8z M25.3,6.1c0.2-0.4,0.4-0.8,0.4-1.2l-1.2-0.2
	c-0.1,0.3-0.2,0.6-0.3,0.8L25.3,6.1z M24.5,7.1c0.3-0.3,0.6-0.6,0.8-1l-1-0.6C24.1,5.8,24,6,23.7,6.2L24.5,7.1z M23.4,7.7
	c0.4-0.2,0.8-0.4,1.1-0.7l-0.8-0.9c-0.2,0.2-0.5,0.3-0.8,0.4L23.4,7.7z M22.1,8c0.4,0,0.9-0.1,1.3-0.2L23,6.6
	c-0.3,0.1-0.6,0.2-0.9,0.2V8z"/>
</svg>
